<svg width="1840" height="701" viewBox="0 0 1840 701" fill="none" xmlns="http://www.w3.org/2000/svg">
<path d="M1839.5 350.5C1839.5 398.703 1813.86 444.681 1767.37 486.559C1720.87 528.436 1653.57 566.172 1570.36 597.874C1403.94 661.275 1174.01 700.5 920 700.5C665.994 700.5 436.057 661.275 269.64 597.874C186.429 566.172 119.125 528.436 72.6328 486.559C26.14 444.681 0.5 398.703 0.5 350.5C0.5 302.297 26.14 256.319 72.6328 214.441C119.125 172.564 186.429 134.828 269.64 103.126C436.057 39.725 665.994 0.5 920 0.5C1174.01 0.5 1403.94 39.725 1570.36 103.126C1653.57 134.828 1720.87 172.564 1767.37 214.441C1813.86 256.319 1839.5 302.297 1839.5 350.5Z" fill="#D9D9D9" stroke="black"/>
</svg>
