<svg width="440" height="153" viewBox="0 0 440 153" fill="none" xmlns="http://www.w3.org/2000/svg">
<mask id="mask0_214_218" style="mask-type:alpha" maskUnits="userSpaceOnUse" x="0" y="0" width="440" height="153">
<rect width="440" height="153" fill="#FF74BD"/>
</mask>
<g mask="url(#mask0_214_218)">
<path d="M388.295 107.877C369.517 124.886 349.045 136.779 331.144 142.271C313.205 147.774 298.031 146.803 289.616 138.388C281.201 129.974 280.932 115.501 287.594 98.7203C294.241 81.9756 307.733 63.1026 326.511 46.0928C345.289 29.083 365.761 17.19 383.661 11.6986C401.601 6.19543 416.775 7.16645 425.189 15.5812C433.604 23.9959 433.873 38.4681 427.212 55.2491C420.565 71.9938 407.073 90.8669 388.295 107.877Z" fill="white" stroke="black"/>
<path d="M68.2445 53.1056V41.8742H10V111.45H68.2445V100.218H23.6169V81.9297H65.0639V72.8849H23.6169V53.1056H68.2445Z" fill="black"/>
<path d="M122.095 41.8742V88.3903C122.095 98.0314 115.933 104.194 106.391 104.194C96.7502 104.194 89.5938 99.5223 89.5938 88.3903V41.8742H74.7842V86.4024C74.7842 100.019 82.1393 112.94 105.894 112.94C128.954 112.94 136.905 99.3235 136.905 86.4024V41.8742H122.095Z" fill="black"/>
<path d="M149.03 111.45H162.647V83.9176H197.932L188.092 111.648H217.015V100.317H205.784C207.871 87.5951 209.859 79.0473 200.615 78.4509V75.171C209.66 73.7794 216.32 68.611 216.32 58.8705C216.32 45.7505 204.293 41.9736 190.577 41.9736H149.03V111.45ZM162.647 53.0063H190.477C197.037 53.0063 202.802 56.2862 202.802 63.2438C202.802 70.0025 197.037 73.5807 190.278 73.4813L162.647 73.2825V53.0063Z" fill="black"/>
<path d="M269.861 41.8742V88.3903C269.861 98.0314 263.699 104.194 254.157 104.194C244.516 104.194 237.36 99.5223 237.36 88.3903V41.8742H222.55V86.4024C222.55 100.019 229.905 112.94 253.66 112.94C276.72 112.94 284.671 99.3235 284.671 86.4024V41.8742H269.861Z" fill="black"/>
<path d="M353.252 79.2461C351.363 76.3637 344.903 74.674 337.647 74.674C334.168 74.674 330.491 75.0716 327.012 75.9661C324.129 76.7612 320.054 78.3515 317.669 79.0473L317.768 75.8667C325.62 74.2764 335.063 71.5928 340.132 65.6292L365.278 41.8742H348.58L315.283 72.2885H310.413V41.8742H296.796V111.45H310.413V83.9176H345.698L335.858 111.648H364.781V100.317H353.55C355.339 88.589 357.824 81.5321 353.252 79.2461Z" fill="black"/>
<mask id="mask1_214_218" style="mask-type:alpha" maskUnits="userSpaceOnUse" x="282" y="7" width="151" height="140">
<ellipse cx="44.1878" cy="91.9627" rx="44.1878" ry="91.9627" transform="matrix(0.707107 0.707107 -0.74114 0.671351 394.315 -16)" fill="#FF74BD"/>
</mask>
<g mask="url(#mask1_214_218)">
<path d="M405.561 40C382.104 40 363.617 56.0023 363.617 76.3779C363.617 97.1511 381.607 112.656 405.561 112.656C429.614 112.656 447.605 97.1511 447.605 76.3779C447.505 55.5054 429.614 40 405.561 40ZM405.561 102.121C390.851 102.121 379.023 92.9766 379.023 76.7755C379.023 60.7732 390.851 50.8339 406.158 51.0327C421.961 51.2314 432.497 60.5744 432.497 76.7755C432.497 92.7778 420.47 102.121 405.561 102.121Z" fill="black"/>
</g>
<path d="M419.57 100.775L418.057 101.212L417.939 100.871L419.389 100.274C420.678 99.7411 423.576 99.1657 423.576 96.6829C423.576 95.287 422.447 94.1895 420.262 94.1895C417.833 94.1895 416.682 95.2657 416.682 96.9706H418.152C418.152 95.9903 418.824 95.4149 420.284 95.4149C421.562 95.4149 422.116 95.969 422.116 96.7362C422.116 99.2189 416.597 99.0271 416.597 101.318V102H423.598V100.775H419.57Z" fill="black"/>
<path d="M432.203 98.2386C432.203 96.1394 430.839 94.328 428.217 94.328C425.617 94.328 424.243 96.1394 424.243 98.2599C424.243 100.359 425.617 102.171 428.217 102.171C430.434 102.171 432.203 100.753 432.203 98.2386ZM428.217 100.945C426.64 100.945 425.713 99.7943 425.713 98.2493C425.713 96.7042 426.64 95.5534 428.217 95.5534C429.805 95.5534 430.732 96.7042 430.732 98.2493C430.732 99.7943 429.805 100.945 428.217 100.945Z" fill="black"/>
<path d="M419.57 109.775L418.057 110.212L417.939 109.871L419.389 109.274C420.678 108.741 423.576 108.166 423.576 105.683C423.576 104.287 422.447 103.189 420.262 103.189C417.833 103.189 416.682 104.266 416.682 105.971H418.152C418.152 104.99 418.824 104.415 420.284 104.415C421.562 104.415 422.116 104.969 422.116 105.736C422.116 108.219 416.597 108.027 416.597 110.318V111H423.598V109.775H419.57Z" fill="black"/>
<path d="M430.231 107.42V107.057C431.276 107.036 431.798 106.429 431.798 105.64C431.798 103.957 430.082 103.307 428.462 103.307C426.598 103.307 424.893 104.063 424.893 106.088H426.363C426.353 105.012 427.482 104.532 428.484 104.532C429.379 104.532 430.327 104.841 430.327 105.704C430.327 106.418 429.869 106.812 429.038 106.812H427.471V107.665H429.038C429.954 107.665 430.327 107.995 430.327 108.762C430.327 109.647 429.411 109.945 428.494 109.945C427.514 109.945 426.353 109.444 426.363 108.4H424.893C424.893 110.403 426.63 111.171 428.473 111.171C430.093 111.171 431.798 110.531 431.798 108.826C431.798 107.985 431.329 107.441 430.231 107.42Z" fill="black"/>
</g>
</svg>
